<?xml version="1.0" encoding="us-ascii" standalone="no"?><svg xmlns="http://www.w3.org/2000/svg" xmlns:xlink="http://www.w3.org/1999/xlink" contentStyleType="text/css" height="1030px" preserveAspectRatio="none" style="width:1507px;height:1030px;background:#FFFFFF;" version="1.1" viewBox="0 0 1507 1030" width="1507px" zoomAndPan="magnify"><defs/><g><rect fill="#FFBBBB" height="261.3281" style="stroke:#181818;stroke-width:1.0;" width="10" x="659.5" y="332.625"/><line style="stroke:#181818;stroke-width:0.5;stroke-dasharray:5.0,5.0;" x1="57" x2="57" y1="81.2969" y2="950.0781"/><line style="stroke:#181818;stroke-width:0.5;stroke-dasharray:5.0,5.0;" x1="241" x2="241" y1="81.2969" y2="950.0781"/><line style="stroke:#181818;stroke-width:0.5;stroke-dasharray:5.0,5.0;" x1="326" x2="326" y1="81.2969" y2="950.0781"/><line style="stroke:#181818;stroke-width:0.5;stroke-dasharray:5.0,5.0;" x1="413" x2="413" y1="81.2969" y2="950.0781"/><line style="stroke:#181818;stroke-width:0.5;stroke-dasharray:5.0,5.0;" x1="527" x2="527" y1="81.2969" y2="950.0781"/><line style="stroke:#181818;stroke-width:0.5;stroke-dasharray:5.0,5.0;" x1="664" x2="664" y1="81.2969" y2="950.0781"/><line style="stroke:#181818;stroke-width:0.5;stroke-dasharray:5.0,5.0;" x1="840.5" x2="840.5" y1="81.2969" y2="950.0781"/><line style="stroke:#181818;stroke-width:0.5;stroke-dasharray:5.0,5.0;" x1="952.5" x2="952.5" y1="81.2969" y2="950.0781"/><line style="stroke:#181818;stroke-width:0.5;stroke-dasharray:5.0,5.0;" x1="1105.5" x2="1105.5" y1="81.2969" y2="950.0781"/><line style="stroke:#181818;stroke-width:0.5;stroke-dasharray:5.0,5.0;" x1="1241.5" x2="1241.5" y1="81.2969" y2="950.0781"/><line style="stroke:#181818;stroke-width:0.5;stroke-dasharray:5.0,5.0;" x1="1408.5" x2="1408.5" y1="81.2969" y2="950.0781"/><text fill="#000000" font-family="sans-serif" font-size="14" lengthAdjust="spacing" textLength="99" x="5" y="77.9951">Data Producer</text><ellipse cx="57.5" cy="13.5" fill="#E2E2F0" rx="8" ry="8" style="stroke:#181818;stroke-width:0.5;"/><path d="M57.5,21.5 L57.5,48.5 M44.5,29.5 L70.5,29.5 M57.5,48.5 L44.5,63.5 M57.5,48.5 L70.5,63.5 " fill="none" style="stroke:#181818;stroke-width:0.5;"/><text fill="#000000" font-family="sans-serif" font-size="14" lengthAdjust="spacing" textLength="99" x="5" y="962.0732">Data Producer</text><ellipse cx="57.5" cy="973.875" fill="#E2E2F0" rx="8" ry="8" style="stroke:#181818;stroke-width:0.5;"/><path d="M57.5,981.875 L57.5,1008.875 M44.5,989.875 L70.5,989.875 M57.5,1008.875 L44.5,1023.875 M57.5,1008.875 L70.5,1023.875 " fill="none" style="stroke:#181818;stroke-width:0.5;"/><rect fill="#ADD8E6" height="46.5938" rx="2.5" ry="2.5" style="stroke:#181818;stroke-width:0.5;" width="77" x="203" y="33.7031"/><text fill="#000000" font-family="sans-serif" font-size="14" lengthAdjust="spacing" textLength="45" x="219" y="53.6982">C-CDA</text><text fill="#000000" font-family="sans-serif" font-size="14" lengthAdjust="spacing" textLength="63" x="210" y="69.9951">XML Files</text><rect fill="#ADD8E6" height="46.5938" rx="2.5" ry="2.5" style="stroke:#181818;stroke-width:0.5;" width="77" x="203" y="949.0781"/><text fill="#000000" font-family="sans-serif" font-size="14" lengthAdjust="spacing" textLength="45" x="219" y="969.0732">C-CDA</text><text fill="#000000" font-family="sans-serif" font-size="14" lengthAdjust="spacing" textLength="63" x="210" y="985.3701">XML Files</text><rect fill="#ADD8E6" height="46.5938" rx="2.5" ry="2.5" style="stroke:#181818;stroke-width:0.5;" width="72" x="290" y="33.7031"/><text fill="#000000" font-family="sans-serif" font-size="14" lengthAdjust="spacing" textLength="57" x="297.5" y="53.6982">HL7 v2.x</text><text fill="#000000" font-family="sans-serif" font-size="14" lengthAdjust="spacing" textLength="58" x="297" y="69.9951">EDI Files</text><rect fill="#ADD8E6" height="46.5938" rx="2.5" ry="2.5" style="stroke:#181818;stroke-width:0.5;" width="72" x="290" y="949.0781"/><text fill="#000000" font-family="sans-serif" font-size="14" lengthAdjust="spacing" textLength="57" x="297.5" y="969.0732">HL7 v2.x</text><text fill="#000000" font-family="sans-serif" font-size="14" lengthAdjust="spacing" textLength="58" x="297" y="985.3701">EDI Files</text><rect fill="#ADD8E6" height="46.5938" rx="2.5" ry="2.5" style="stroke:#181818;stroke-width:0.5;" width="82" x="372" y="33.7031"/><text fill="#000000" font-family="sans-serif" font-size="14" lengthAdjust="spacing" textLength="68" x="379" y="53.6982">FHIR JSON</text><text fill="#000000" font-family="sans-serif" font-size="14" lengthAdjust="spacing" textLength="67" x="379.5" y="69.9951">(Bundles)</text><rect fill="#ADD8E6" height="46.5938" rx="2.5" ry="2.5" style="stroke:#181818;stroke-width:0.5;" width="82" x="372" y="949.0781"/><text fill="#000000" font-family="sans-serif" font-size="14" lengthAdjust="spacing" textLength="68" x="379" y="969.0732">FHIR JSON</text><text fill="#000000" font-family="sans-serif" font-size="14" lengthAdjust="spacing" textLength="67" x="379.5" y="985.3701">(Bundles)</text><rect fill="#E2E2F0" height="46.5938" rx="2.5" ry="2.5" style="stroke:#181818;stroke-width:0.5;" width="127" x="464" y="33.7031"/><text fill="#000000" font-family="sans-serif" font-size="14" lengthAdjust="spacing" textLength="113" x="471" y="53.6982">HealthLake Orch</text><text fill="#000000" font-family="sans-serif" font-size="14" lengthAdjust="spacing" textLength="94" x="480.5" y="69.9951">AWS S3 Store</text><rect fill="#E2E2F0" height="46.5938" rx="2.5" ry="2.5" style="stroke:#181818;stroke-width:0.5;" width="127" x="464" y="949.0781"/><text fill="#000000" font-family="sans-serif" font-size="14" lengthAdjust="spacing" textLength="113" x="471" y="969.0732">HealthLake Orch</text><text fill="#000000" font-family="sans-serif" font-size="14" lengthAdjust="spacing" textLength="94" x="480.5" y="985.3701">AWS S3 Store</text><rect fill="#FFFFE0" height="46.5938" rx="2.5" ry="2.5" style="stroke:#181818;stroke-width:0.5;" width="127" x="601" y="33.7031"/><text fill="#000000" font-family="sans-serif" font-size="14" lengthAdjust="spacing" textLength="113" x="608" y="53.6982">HealthLake Orch</text><text fill="#000000" font-family="sans-serif" font-size="14" lengthAdjust="spacing" textLength="71" x="629" y="69.9951">(this repo)</text><rect fill="#FFFFE0" height="46.5938" rx="2.5" ry="2.5" style="stroke:#181818;stroke-width:0.5;" width="127" x="601" y="949.0781"/><text fill="#000000" font-family="sans-serif" font-size="14" lengthAdjust="spacing" textLength="113" x="608" y="969.0732">HealthLake Orch</text><text fill="#000000" font-family="sans-serif" font-size="14" lengthAdjust="spacing" textLength="71" x="629" y="985.3701">(this repo)</text><rect fill="#E2E2F0" height="46.5938" rx="2.5" ry="2.5" style="stroke:#181818;stroke-width:0.5;" width="112" x="784.5" y="33.7031"/><text fill="#000000" font-family="sans-serif" font-size="14" lengthAdjust="spacing" textLength="98" x="791.5" y="53.6982">C-CDA to FHIR</text><text fill="#000000" font-family="sans-serif" font-size="14" lengthAdjust="spacing" textLength="79" x="801" y="69.9951">Lambda API</text><rect fill="#E2E2F0" height="46.5938" rx="2.5" ry="2.5" style="stroke:#181818;stroke-width:0.5;" width="112" x="784.5" y="949.0781"/><text fill="#000000" font-family="sans-serif" font-size="14" lengthAdjust="spacing" textLength="98" x="791.5" y="969.0732">C-CDA to FHIR</text><text fill="#000000" font-family="sans-serif" font-size="14" lengthAdjust="spacing" textLength="79" x="801" y="985.3701">Lambda API</text><rect fill="#E2E2F0" height="46.5938" rx="2.5" ry="2.5" style="stroke:#181818;stroke-width:0.5;" width="93" x="906.5" y="33.7031"/><text fill="#000000" font-family="sans-serif" font-size="14" lengthAdjust="spacing" textLength="79" x="913.5" y="53.6982">HL7 to FHIR</text><text fill="#000000" font-family="sans-serif" font-size="14" lengthAdjust="spacing" textLength="79" x="913.5" y="69.9951">Lambda API</text><rect fill="#E2E2F0" height="46.5938" rx="2.5" ry="2.5" style="stroke:#181818;stroke-width:0.5;" width="93" x="906.5" y="949.0781"/><text fill="#000000" font-family="sans-serif" font-size="14" lengthAdjust="spacing" textLength="79" x="913.5" y="969.0732">HL7 to FHIR</text><text fill="#000000" font-family="sans-serif" font-size="14" lengthAdjust="spacing" textLength="79" x="913.5" y="985.3701">Lambda API</text><rect fill="#FFFFE0" height="46.5938" rx="2.5" ry="2.5" style="stroke:#181818;stroke-width:0.5;" width="125" x="1043.5" y="33.7031"/><text fill="#000000" font-family="sans-serif" font-size="14" lengthAdjust="spacing" textLength="111" x="1050.5" y="53.6982">AWS HealthLake</text><text fill="#000000" font-family="sans-serif" font-size="14" lengthAdjust="spacing" textLength="78" x="1067" y="69.9951">FHIR-Native</text><rect fill="#FFFFE0" height="46.5938" rx="2.5" ry="2.5" style="stroke:#181818;stroke-width:0.5;" width="125" x="1043.5" y="949.0781"/><text fill="#000000" font-family="sans-serif" font-size="14" lengthAdjust="spacing" textLength="111" x="1050.5" y="969.0732">AWS HealthLake</text><text fill="#000000" font-family="sans-serif" font-size="14" lengthAdjust="spacing" textLength="78" x="1067" y="985.3701">FHIR-Native</text><rect fill="#FFFFE0" height="46.5938" rx="2.5" ry="2.5" style="stroke:#181818;stroke-width:0.5;" width="127" x="1178.5" y="33.7031"/><text fill="#000000" font-family="sans-serif" font-size="14" lengthAdjust="spacing" textLength="113" x="1185.5" y="53.6982">HealthLake Orch</text><text fill="#000000" font-family="sans-serif" font-size="14" lengthAdjust="spacing" textLength="87" x="1198.5" y="69.9951">Support Hub</text><rect fill="#FFFFE0" height="46.5938" rx="2.5" ry="2.5" style="stroke:#181818;stroke-width:0.5;" width="127" x="1178.5" y="949.0781"/><text fill="#000000" font-family="sans-serif" font-size="14" lengthAdjust="spacing" textLength="113" x="1185.5" y="969.0732">HealthLake Orch</text><text fill="#000000" font-family="sans-serif" font-size="14" lengthAdjust="spacing" textLength="87" x="1198.5" y="985.3701">Support Hub</text><rect fill="#E2E2F0" height="46.5938" rx="2.5" ry="2.5" style="stroke:#181818;stroke-width:0.5;" width="186" x="1315.5" y="33.7031"/><text fill="#000000" font-family="sans-serif" font-size="14" lengthAdjust="spacing" textLength="172" x="1322.5" y="53.6982">Downstream Consumers</text><text fill="#000000" font-family="sans-serif" font-size="14" lengthAdjust="spacing" textLength="119" x="1349" y="69.9951">Other Data Lakes</text><rect fill="#E2E2F0" height="46.5938" rx="2.5" ry="2.5" style="stroke:#181818;stroke-width:0.5;" width="186" x="1315.5" y="949.0781"/><text fill="#000000" font-family="sans-serif" font-size="14" lengthAdjust="spacing" textLength="172" x="1322.5" y="969.0732">Downstream Consumers</text><text fill="#000000" font-family="sans-serif" font-size="14" lengthAdjust="spacing" textLength="119" x="1349" y="985.3701">Other Data Lakes</text><rect fill="#FFBBBB" height="261.3281" style="stroke:#181818;stroke-width:1.0;" width="10" x="659.5" y="332.625"/><polygon fill="#181818" points="229.5,108.4297,239.5,112.4297,229.5,116.4297,233.5,112.4297" style="stroke:#181818;stroke-width:1.0;"/><line style="stroke:#181818;stroke-width:1.0;" x1="57.5" x2="235.5" y1="112.4297" y2="112.4297"/><text fill="#000000" font-family="sans-serif" font-size="13" lengthAdjust="spacing" textLength="160" x="64.5" y="107.3638">Produce C-CDA/XML Files</text><polygon fill="#181818" points="314,137.5625,324,141.5625,314,145.5625,318,141.5625" style="stroke:#181818;stroke-width:1.0;"/><line style="stroke:#181818;stroke-width:1.0;" x1="57.5" x2="320" y1="141.5625" y2="141.5625"/><text fill="#000000" font-family="sans-serif" font-size="13" lengthAdjust="spacing" textLength="143" x="64.5" y="136.4966">Produce HL7 v2.x Files</text><polygon fill="#181818" points="401,166.6953,411,170.6953,401,174.6953,405,170.6953" style="stroke:#181818;stroke-width:1.0;"/><line style="stroke:#181818;stroke-width:1.0;" x1="57.5" x2="407" y1="170.6953" y2="170.6953"/><text fill="#000000" font-family="sans-serif" font-size="13" lengthAdjust="spacing" textLength="155" x="64.5" y="165.6294">Produce FHIR JSON Data</text><polygon fill="#181818" points="515.5,195.8281,525.5,199.8281,515.5,203.8281,519.5,199.8281" style="stroke:#181818;stroke-width:1.0;"/><line style="stroke:#181818;stroke-width:1.0;stroke-dasharray:2.0,2.0;" x1="241.5" x2="521.5" y1="199.8281" y2="199.8281"/><text fill="#000000" font-family="sans-serif" font-size="13" lengthAdjust="spacing" textLength="125" x="248.5" y="194.7622">Lambda/SFTP to S3</text><polygon fill="#181818" points="515.5,224.9609,525.5,228.9609,515.5,232.9609,519.5,228.9609" style="stroke:#181818;stroke-width:1.0;"/><line style="stroke:#181818;stroke-width:1.0;stroke-dasharray:2.0,2.0;" x1="326" x2="521.5" y1="228.9609" y2="228.9609"/><text fill="#000000" font-family="sans-serif" font-size="13" lengthAdjust="spacing" textLength="125" x="333" y="223.895">Lambda/SFTP to S3</text><polygon fill="#181818" points="515.5,269.2266,525.5,273.2266,515.5,277.2266,519.5,273.2266" style="stroke:#181818;stroke-width:1.0;"/><line style="stroke:#181818;stroke-width:1.0;" x1="413" x2="521.5" y1="273.2266" y2="273.2266"/><text fill="#000000" font-family="sans-serif" font-size="13" lengthAdjust="spacing" textLength="87" x="420" y="253.0278">Lambda/SFTP</text><text fill="#000000" font-family="sans-serif" font-size="13" lengthAdjust="spacing" textLength="34" x="420" y="268.1606">to S3</text><polygon fill="#181818" points="538.5,328.625,528.5,332.625,538.5,336.625,534.5,332.625" style="stroke:#181818;stroke-width:1.0;"/><line style="stroke:#181818;stroke-width:1.0;" x1="532.5" x2="658.5" y1="332.625" y2="332.625"/><text fill="#000000" font-family="sans-serif" font-size="13" lengthAdjust="spacing" textLength="63" x="544.5" y="297.2935">S3 trigger</text><text fill="#000000" font-family="sans-serif" font-size="13" lengthAdjust="spacing" textLength="77" x="544.5" y="312.4263">or Batch Job</text><text fill="#000000" font-family="sans-serif" font-size="13" lengthAdjust="spacing" textLength="68" x="544.5" y="327.5591">(ingestion)</text><polygon fill="#181818" points="828.5,357.7578,838.5,361.7578,828.5,365.7578,832.5,361.7578" style="stroke:#181818;stroke-width:1.0;"/><line style="stroke:#181818;stroke-width:1.0;stroke-dasharray:2.0,2.0;" x1="669.5" x2="834.5" y1="361.7578" y2="361.7578"/><text fill="#000000" font-family="sans-serif" font-size="13" lengthAdjust="spacing" textLength="147" x="676.5" y="356.6919">C-CDA to FHIR Lambda</text><path d="M845,374.7578 L845,399.7578 L905,399.7578 L905,384.7578 L895,374.7578 L845,374.7578 " fill="#FEFFDD" style="stroke:#181818;stroke-width:0.5;"/><path d="M895,374.7578 L895,384.7578 L905,384.7578 L895,374.7578 " fill="#FEFFDD" style="stroke:#181818;stroke-width:0.5;"/><text fill="#000000" font-family="sans-serif" font-size="13" lengthAdjust="spacing" textLength="39" x="851" y="391.8247">how??</text><polygon fill="#181818" points="1094,422.0234,1104,426.0234,1094,430.0234,1098,426.0234" style="stroke:#181818;stroke-width:1.0;"/><line style="stroke:#181818;stroke-width:1.0;stroke-dasharray:2.0,2.0;" x1="840.5" x2="1100" y1="426.0234" y2="426.0234"/><text fill="#000000" font-family="sans-serif" font-size="13" lengthAdjust="spacing" textLength="127" x="847.5" y="420.9575">Transformed C-CDA</text><polygon fill="#181818" points="941,451.1563,951,455.1563,941,459.1563,945,455.1563" style="stroke:#181818;stroke-width:1.0;"/><line style="stroke:#181818;stroke-width:1.0;stroke-dasharray:2.0,2.0;" x1="669.5" x2="947" y1="455.1563" y2="455.1563"/><text fill="#000000" font-family="sans-serif" font-size="13" lengthAdjust="spacing" textLength="149" x="676.5" y="450.0903">HL7 v2 to FHIR Lambda</text><path d="M958,468.1563 L958,538.1563 L1104,538.1563 L1104,478.1563 L1094,468.1563 L958,468.1563 " fill="#FEFFDD" style="stroke:#181818;stroke-width:0.5;"/><path d="M1094,468.1563 L1094,478.1563 L1104,478.1563 L1094,468.1563 " fill="#FEFFDD" style="stroke:#181818;stroke-width:0.5;"/><text fill="#000000" font-family="sans-serif" font-size="13" lengthAdjust="spacing" textLength="72" x="964" y="485.2231">github.com</text><text fill="#000000" font-family="sans-serif" font-size="13" lengthAdjust="spacing" textLength="95" x="964" y="500.356">LinuxForHealth</text><text fill="#000000" font-family="sans-serif" font-size="13" lengthAdjust="spacing" textLength="125" x="964" y="515.4888">hl7v2-fhir-converter</text><text fill="#000000" font-family="sans-serif" font-size="13" lengthAdjust="spacing" textLength="52" x="964" y="530.6216">Lambda</text><polygon fill="#181818" points="1094,560.8203,1104,564.8203,1094,568.8203,1098,564.8203" style="stroke:#181818;stroke-width:1.0;"/><line style="stroke:#181818;stroke-width:1.0;stroke-dasharray:2.0,2.0;" x1="953" x2="1100" y1="564.8203" y2="564.8203"/><text fill="#000000" font-family="sans-serif" font-size="13" lengthAdjust="spacing" textLength="129" x="960" y="559.7544">Transformed HL7 v2</text><polygon fill="#181818" points="1094,589.9531,1104,593.9531,1094,597.9531,1098,593.9531" style="stroke:#181818;stroke-width:1.0;"/><line style="stroke:#181818;stroke-width:1.0;" x1="664.5" x2="1100" y1="593.9531" y2="593.9531"/><text fill="#000000" font-family="sans-serif" font-size="13" lengthAdjust="spacing" textLength="226" x="671.5" y="588.8872">Native FHIR Bundles and Resources</text><path d="M1111,606.9531 L1111,721.9531 L1247,721.9531 L1247,616.9531 L1237,606.9531 L1111,606.9531 " fill="#FEFFDD" style="stroke:#181818;stroke-width:0.5;"/><path d="M1237,606.9531 L1237,616.9531 L1247,616.9531 L1237,606.9531 " fill="#FEFFDD" style="stroke:#181818;stroke-width:0.5;"/><text fill="#000000" font-family="sans-serif" font-size="13" lengthAdjust="spacing" textLength="81" x="1117" y="624.02">FHIR Queries</text><text fill="#000000" font-family="sans-serif" font-size="13" lengthAdjust="spacing" textLength="101" x="1117" y="639.1528">with HealthLake</text><text fill="#000000" font-family="sans-serif" font-size="13" lengthAdjust="spacing" textLength="115" x="1117" y="654.2856">for data validation</text><text fill="#000000" font-family="sans-serif" font-size="13" lengthAdjust="spacing" textLength="4" x="1117" y="669.4185">&#160;</text><text fill="#000000" font-family="sans-serif" font-size="13" lengthAdjust="spacing" textLength="79" x="1117" y="684.5513">SQL Queries</text><text fill="#000000" font-family="sans-serif" font-size="13" lengthAdjust="spacing" textLength="75" x="1117" y="699.6841">with Athena</text><text fill="#000000" font-family="sans-serif" font-size="13" lengthAdjust="spacing" textLength="115" x="1117" y="714.8169">for data validation</text><polygon fill="#181818" points="1117,745.0156,1107,749.0156,1117,753.0156,1113,749.0156" style="stroke:#181818;stroke-width:1.0;"/><line style="stroke:#181818;stroke-width:1.0;" x1="1111" x2="1241" y1="749.0156" y2="749.0156"/><text fill="#000000" font-family="sans-serif" font-size="13" lengthAdjust="spacing" textLength="38" x="1123" y="743.9497">Query</text><polygon fill="#181818" points="538.5,774.1484,528.5,778.1484,538.5,782.1484,534.5,778.1484" style="stroke:#181818;stroke-width:1.0;"/><line style="stroke:#181818;stroke-width:1.0;" x1="532.5" x2="1241" y1="778.1484" y2="778.1484"/><text fill="#000000" font-family="sans-serif" font-size="13" lengthAdjust="spacing" textLength="38" x="544.5" y="773.0825">Query</text><path d="M1247,791.1484 L1247,876.1484 L1382,876.1484 L1382,801.1484 L1372,791.1484 L1247,791.1484 " fill="#FEFFDD" style="stroke:#181818;stroke-width:0.5;"/><path d="M1372,791.1484 L1372,801.1484 L1382,801.1484 L1372,791.1484 " fill="#FEFFDD" style="stroke:#181818;stroke-width:0.5;"/><text fill="#000000" font-family="sans-serif" font-size="13" lengthAdjust="spacing" textLength="91" x="1253" y="808.2153">"Support Hub"</text><text fill="#000000" font-family="sans-serif" font-size="13" lengthAdjust="spacing" textLength="75" x="1253" y="823.3481">Provenance</text><text fill="#000000" font-family="sans-serif" font-size="13" lengthAdjust="spacing" textLength="53" x="1253" y="838.481">Tracking</text><text fill="#000000" font-family="sans-serif" font-size="13" lengthAdjust="spacing" textLength="114" x="1253" y="853.6138">"Needs Attention"</text><text fill="#000000" font-family="sans-serif" font-size="13" lengthAdjust="spacing" textLength="24" x="1253" y="868.7466">etc.</text><polygon fill="#181818" points="1396.5,898.9453,1406.5,902.9453,1396.5,906.9453,1400.5,902.9453" style="stroke:#181818;stroke-width:1.0;"/><line style="stroke:#181818;stroke-width:1.0;" x1="664.5" x2="1402.5" y1="902.9453" y2="902.9453"/><text fill="#000000" font-family="sans-serif" font-size="13" lengthAdjust="spacing" textLength="324" x="671.5" y="897.8794">Read FHIR from HL and Send Bundles Downstream</text><polygon fill="#181818" points="1117,928.0781,1107,932.0781,1117,936.0781,1113,932.0781" style="stroke:#181818;stroke-width:1.0;"/><line style="stroke:#181818;stroke-width:1.0;" x1="1111" x2="1407.5" y1="932.0781" y2="932.0781"/><text fill="#000000" font-family="sans-serif" font-size="13" lengthAdjust="spacing" textLength="104" x="1123" y="927.0122">Access Directly?</text><!--SRC=[XLJ1Rk8m4BtxAqRifJtGIksX4eUjGYbggnGeOTKzHAfCOeZLO2F7WVRlToPEI48AoudOxysycNbZ7bbjOCGjdnaTvv4mm3FeqG5K9pt6jjnO6SajLnPw3_s7aHUglwy-Z6KgiXvHy0X-fNATs6MQYpRXoR-3tStLLwWUHyyD3fsVueoVdkVm4amdeReOvYf6pcL1eeiFkcXIZ_89djh4vvy2fYPAGkMz1n3SGe2rYZBpz2Eu_G_hmYOo0oEs-h8YbJc_HPhg_Kzj0QiBXQ7o-MOPS_1cpwu_UFbHQFUzr-78wtRe51FlMiGsaqghbOUAaFq9jt9NLThMVBxa8DzkjR7mb2_hFlsPpQRpnPam8xrNcJM2R-11gopV29E5QceJuQm5bC6DV3HzdmIB-QFtobZBTVtVPA51PJeekdbzy5W7Z5sfmPN1Jc0FbgaP1tiL0XcZqVMBi6IC0RWPN0VZnOm6WrwX7ESHjJD_XeNAuHWPgG51PreZrsjXGeNBEEGsIk15Bz61Kgr5PgLMbun7E5DkXRFXU3p4duj4hJjorm1QRYnLCAMHRsYCe5TTIm8aUdz_puIAWQ3ObYD8sO41B0nNsKgRZOXTgeEK8xiEok6SbtBiSO2rj4c-l8hq1ZzygVAliJREhwGplTlTz5U9DFr8gvqmLXZ2kTYr_gEuFyft-kgX3C2jZvDRlZt0CUPSP3et4Jei5irni4urgALWl-N2I6JZznuBQcmgdc1-Y6azTZoL-0V7pF0uUFCxF0ztIV4Jd6QvzRgMjL2ax-w5SvwxxAW_O35Xh_aau3Skq0wbg8Wgm3P6d-XHmas4Y3CKQeKYLOGLDhfggwFazHCmm8xos7LgPVI67YlgSq2Sgl7ruy9gPbMT5-4q42EDY6pwVS_-0G00]--></g></svg>